<svg width="16" height="15" viewBox="0 0 16 15" fill="none" xmlns="http://www.w3.org/2000/svg">
<path fill-rule="evenodd" clip-rule="evenodd" d="M8.20739 2.7584L8.40351 3.08062H8.72451V14.1548H9.39569V3.08062V2.40944H8.78071C7.97104 1.07919 6.44281 0.280273 4.68734 0.280273C2.90857 0.280273 1.37288 1.06795 0.57808 2.40944H0V3.08062V14.2426V14.9137H0.000115838V14.1548H0.671179V3.08062H0.960558L1.15552 2.75156C1.80871 1.64909 3.10189 0.951453 4.68734 0.951453C6.24215 0.951453 7.536 1.65535 8.20739 2.7584Z" fill="#2E382D"/>
<path fill-rule="evenodd" clip-rule="evenodd" d="M14.8119 2.7584L15.008 3.08062H15.329V14.1548H16.0002V3.08062V2.40944H15.3852C14.5755 1.07919 13.0473 0.280273 11.2918 0.280273C9.51307 0.280273 7.97738 1.06795 7.18257 2.40944H6.60449V3.08062V14.1548H7.27567V3.08062H7.56505L7.76001 2.75156C8.4132 1.64909 9.70638 0.951453 11.2918 0.951453C12.8466 0.951453 14.1405 1.65535 14.8119 2.7584Z" fill="#2E382D"/>
</svg>
