<svg width="72" height="64" viewBox="0 0 72 64" fill="none" xmlns="http://www.w3.org/2000/svg">
<path fill-rule="evenodd" clip-rule="evenodd" d="M36.9332 11.9341L37.8158 13.384H39.2603V63.2177H42.2806V13.384V10.3637H39.5132C35.8697 4.3776 28.9926 0.782471 21.093 0.782471C13.0886 0.782471 6.17798 4.32701 2.60136 10.3637H0V13.384V63.2177H3.02031V13.384H4.32251L5.19983 11.9033C8.1392 6.94213 13.9585 3.80278 21.093 3.80278C28.0897 3.80278 33.912 6.97034 36.9332 11.9341Z" fill="#2E382D"/>
<path fill-rule="evenodd" clip-rule="evenodd" d="M66.6525 11.9341L67.535 13.384H68.9795V63.2177H71.9999V13.384V10.3637H69.2325C65.5889 4.3776 58.7119 0.782471 50.8123 0.782471C42.8078 0.782471 35.8972 4.32701 32.3206 10.3637H29.7192V13.384V63.2177H32.7395V13.384H34.0417L34.9191 11.9033C37.8584 6.94213 43.6777 3.80278 50.8123 3.80278C57.8089 3.80278 63.6312 6.97034 66.6525 11.9341Z" fill="#2E382D"/>
</svg>
